<?xml version="1.0" encoding="UTF-8" standalone="no"?><!DOCTYPE svg PUBLIC "-//W3C//DTD SVG 1.1//EN" "http://www.w3.org/Graphics/SVG/1.1/DTD/svg11.dtd"><!-- Generated by graphviz version 2.40.1 (20161225.0304)
 --><!-- Title: BacktestingLib Pages: 1 --><svg xmlns="http://www.w3.org/2000/svg" xmlns:xlink="http://www.w3.org/1999/xlink" width="570pt" height="355pt" viewBox="0.00 0.00 570.00 354.60">
<g id="graph0" class="graph" transform="scale(1 1) rotate(0) translate(4 350.6)">
<title>BacktestingLib</title>
<polygon fill="#ffffff" stroke="transparent" points="-4,4 -4,-350.6 566,-350.6 566,4 -4,4"/>
<g id="clust1" class="cluster">
<title>clusterLegend</title>
<polygon fill="none" stroke="#000000" points="8,-8 8,-338.6 554,-338.6 554,-8 8,-8"/>
<text text-anchor="middle" x="281" y="-322" font-family="Times,serif" font-size="14.00" fill="#000000">Legend</text>
</g>
<!-- legendNode0 -->
<g id="node1" class="node">
<title>legendNode0</title>
<polygon fill="none" stroke="#000000" points="295.3754,-269.8493 298.2723,-269.9479 301.1392,-270.0953 303.9645,-270.2913 306.7366,-270.5353 309.4445,-270.8266 312.0775,-271.1645 314.6254,-271.5479 317.0784,-271.9759 319.4275,-272.4472 321.6642,-272.9606 323.7806,-273.5147 325.7698,-274.108 327.6255,-274.7388 329.3422,-275.4054 330.915,-276.1059 332.3403,-276.8385 333.6148,-277.6012 334.7364,-278.3918 335.7036,-279.2082 336.5158,-280.0481 337.1732,-280.9093 337.6766,-281.7894 338.0277,-282.686 338.2289,-283.5965 338.283,-284.5186 338.1936,-285.4497 337.9649,-286.3873 337.6014,-287.3287 337.1081,-288.2713 336.4905,-289.2127 335.7542,-290.1503 334.9053,-291.0814 333.95,-292.0035 332.8945,-292.914 331.7452,-293.8106 330.5086,-294.6907 329.1911,-295.5519 327.799,-296.3918 326.3386,-297.2082 324.8157,-297.9988 323.2363,-298.7615 321.606,-299.4941 319.93,-300.1946 318.2134,-300.8612 316.4608,-301.492 314.6767,-302.0853 312.8651,-302.6394 311.0297,-303.1528 309.1739,-303.6241 307.3007,-304.0521 305.413,-304.4355 303.5131,-304.7734 301.6033,-305.0647 299.6856,-305.3087 297.7616,-305.5047 295.8329,-305.6521 293.901,-305.7507 291.9672,-305.8 290.0328,-305.8 288.099,-305.7507 286.1671,-305.6521 284.2384,-305.5047 282.3144,-305.3087 280.3967,-305.0647 278.4869,-304.7734 276.587,-304.4355 274.6993,-304.0521 272.8261,-303.6241 270.9703,-303.1528 269.1349,-302.6394 267.3233,-302.0853 265.5392,-301.492 263.7866,-300.8612 262.07,-300.1946 260.394,-299.4941 258.7637,-298.7615 257.1843,-297.9988 255.6614,-297.2082 254.201,-296.3918 252.8089,-295.5519 251.4914,-294.6907 250.2548,-293.8106 249.1055,-292.914 248.05,-292.0035 247.0947,-291.0814 246.2458,-290.1503 245.5095,-289.2127 244.8919,-288.2713 244.3986,-287.3287 244.0351,-286.3873 243.8064,-285.4497 243.717,-284.5186 243.7711,-283.5965 243.9723,-282.686 244.3234,-281.7894 244.8268,-280.9093 245.4842,-280.0481 246.2964,-279.2082 247.2636,-278.3918 248.3852,-277.6012 249.6597,-276.8385 251.085,-276.1059 252.6578,-275.4054 254.3745,-274.7388 256.2302,-274.108 258.2194,-273.5147 260.3358,-272.9606 262.5725,-272.4472 264.9216,-271.9759 267.3746,-271.5479 269.9225,-271.1645 272.5555,-270.8266 275.2634,-270.5353 278.0355,-270.2913 280.8608,-270.0953 283.7277,-269.9479 286.6246,-269.8493 289.5395,-269.8 292.4605,-269.8 295.3754,-269.8493"/>
<text text-anchor="middle" x="291" y="-284.2" font-family="Times,serif" font-size="12.00" fill="#000000">Executable</text>
</g>
<!-- legendNode1 -->
<g id="node2" class="node">
<title>legendNode1</title>
<polygon fill="none" stroke="#000000" points="129.8069,-161.3442 129.8069,-176.2558 96.5302,-186.8 49.4698,-186.8 16.1931,-176.2558 16.1931,-161.3442 49.4698,-150.8 96.5302,-150.8 129.8069,-161.3442"/>
<text text-anchor="middle" x="73" y="-165.2" font-family="Times,serif" font-size="12.00" fill="#000000">Static Library</text>
</g>
<!-- legendNode0&#45;&gt;legendNode1 -->
<g id="edge1" class="edge">
<title>legendNode0-&gt;legendNode1</title>
<path fill="none" stroke="#000000" d="M262.5003,-272.2428C223.8184,-251.1275 154.5761,-213.3301 111.3594,-189.7393"/>
<polygon fill="#000000" stroke="#000000" points="113.0072,-186.6513 102.5528,-184.932 109.6532,-192.7955 113.0072,-186.6513"/>
</g>
<!-- legendNode2 -->
<g id="node3" class="node">
<title>legendNode2</title>
<polygon fill="none" stroke="#000000" points="274.0867,-161.3442 274.0867,-176.2558 238.3029,-186.8 187.6971,-186.8 151.9133,-176.2558 151.9133,-161.3442 187.6971,-150.8 238.3029,-150.8 274.0867,-161.3442"/>
<polygon fill="none" stroke="#000000" points="278.0894,-158.3534 278.0894,-179.2466 238.8808,-190.8 187.1192,-190.8 147.9106,-179.2466 147.9106,-158.3534 187.1192,-146.8 238.8808,-146.8 278.0894,-158.3534"/>
<text text-anchor="middle" x="213" y="-165.2" font-family="Times,serif" font-size="12.00" fill="#000000">Shared Library</text>
</g>
<!-- legendNode0&#45;&gt;legendNode2 -->
<g id="edge2" class="edge">
<title>legendNode0-&gt;legendNode2</title>
<path fill="none" stroke="#000000" d="M279.3226,-269.9845C267.1666,-251.4388 247.8937,-222.0352 233.2494,-199.6934"/>
<polygon fill="#000000" stroke="#000000" points="236.099,-197.6562 227.6898,-191.2114 230.2446,-201.4936 236.099,-197.6562"/>
</g>
<!-- legendNode3 -->
<g id="node4" class="node">
<title>legendNode3</title>
<polygon fill="none" stroke="#000000" points="431.6536,-161.3442 431.6536,-176.2558 394.3662,-186.8 341.6338,-186.8 304.3464,-176.2558 304.3464,-161.3442 341.6338,-150.8 394.3662,-150.8 431.6536,-161.3442"/>
<polygon fill="none" stroke="#000000" points="435.6434,-158.3163 435.6434,-179.2837 394.9181,-190.8 341.0819,-190.8 300.3566,-179.2837 300.3566,-158.3163 341.0819,-146.8 394.9181,-146.8 435.6434,-158.3163"/>
<polygon fill="none" stroke="#000000" points="439.6332,-155.2885 439.6332,-182.3115 395.47,-194.8 340.53,-194.8 296.3668,-182.3115 296.3668,-155.2885 340.53,-142.8 395.47,-142.8 439.6332,-155.2885"/>
<text text-anchor="middle" x="368" y="-165.2" font-family="Times,serif" font-size="12.00" fill="#000000">Module Library</text>
</g>
<!-- legendNode0&#45;&gt;legendNode3 -->
<!-- legendNode7 -->
<g id="node8" class="node">
<title>legendNode7</title>
<polygon fill="none" stroke="#000000" points="545.6539,-186.8 458.3461,-186.8 458.3461,-150.8 545.6539,-150.8 545.6539,-186.8"/>
<text text-anchor="middle" x="502" y="-165.2" font-family="Times,serif" font-size="12.00" fill="#000000">Custom Target</text>
</g>
<!-- legendNode0&#45;&gt;legendNode7 -->
<!-- legendNode4 -->
<g id="node5" class="node">
<title>legendNode4</title>
<polygon fill="none" stroke="#000000" points="170.119,-39.5623 93,-52 15.881,-39.5623 45.3378,-19.4377 140.6622,-19.4377 170.119,-39.5623"/>
<text text-anchor="middle" x="93" y="-30.4" font-family="Times,serif" font-size="12.00" fill="#000000">Interface Library</text>
</g>
<!-- legendNode1&#45;&gt;legendNode4 -->
<g id="edge4" class="edge">
<title>legendNode1-&gt;legendNode4</title>
<path fill="none" stroke="#000000" stroke-dasharray="5,2" d="M75.6973,-150.6203C79.0709,-127.8819 84.8828,-88.7099 88.8309,-62.0995"/>
<polygon fill="#000000" stroke="#000000" points="92.3399,-62.2971 90.3454,-51.8917 85.4156,-61.2697 92.3399,-62.2971"/>
<text text-anchor="middle" x="108.8654" y="-93.2" font-family="Times,serif" font-size="14.00" fill="#000000">Interface</text>
</g>
<!-- legendNode5 -->
<g id="node6" class="node">
<title>legendNode5</title>
<polygon fill="none" stroke="#000000" points="316.2793,-34 284.1396,-52 219.8604,-52 187.7207,-34 219.8604,-16 284.1396,-16 316.2793,-34"/>
<text text-anchor="middle" x="252" y="-30.4" font-family="Times,serif" font-size="12.00" fill="#000000">Object Library</text>
</g>
<!-- legendNode2&#45;&gt;legendNode5 -->
<g id="edge5" class="edge">
<title>legendNode2-&gt;legendNode5</title>
<path fill="none" stroke="#000000" stroke-dasharray="1,5" d="M219.4401,-146.5405C226.1334,-123.4057 236.626,-87.1389 243.8826,-62.057"/>
<polygon fill="#000000" stroke="#000000" points="247.2622,-62.9691 246.6794,-52.3903 240.538,-61.0236 247.2622,-62.9691"/>
<text text-anchor="middle" x="255.8268" y="-93.2" font-family="Times,serif" font-size="14.00" fill="#000000">Private</text>
</g>
<!-- legendNode6 -->
<g id="node7" class="node">
<title>legendNode6</title>
<polygon fill="none" stroke="#000000" points="479.5523,-29.9946 465.1825,-45.2228 407,-52 348.8175,-45.2228 334.4477,-29.9946 374.7112,-17.7826 439.2888,-17.7826 479.5523,-29.9946"/>
<text text-anchor="middle" x="407" y="-30.4" font-family="Times,serif" font-size="12.00" fill="#000000">Unknown Library</text>
</g>
<!-- legendNode3&#45;&gt;legendNode6 -->
<g id="edge6" class="edge">
<title>legendNode3-&gt;legendNode6</title>
<path fill="none" stroke="#000000" d="M375.6122,-142.4892C382.3706,-119.1292 392.2099,-85.1206 399.0644,-61.4286"/>
<polygon fill="#000000" stroke="#000000" points="402.4746,-62.2351 401.8917,-51.6563 395.7503,-60.2896 402.4746,-62.2351"/>
</g>
</g>
</svg>