<?xml version="1.0" encoding="UTF-8" standalone="no"?><!DOCTYPE svg PUBLIC "-//W3C//DTD SVG 1.1//EN" "http://www.w3.org/Graphics/SVG/1.1/DTD/svg11.dtd"><!-- Generated by graphviz version 2.40.1 (20161225.0304)
 --><!-- Title: BacktestingLib Pages: 1 --><svg xmlns="http://www.w3.org/2000/svg" xmlns:xlink="http://www.w3.org/1999/xlink" width="698pt" height="229pt" viewBox="0.00 0.00 697.92 228.66">
<g id="graph0" class="graph" transform="scale(1 1) rotate(0) translate(4 224.662)">
<title>BacktestingLib</title>
<polygon fill="#ffffff" stroke="transparent" points="-4,4 -4,-224.662 693.9199,-224.662 693.9199,4 -4,4"/>
<!-- node0 -->
<g id="node1" class="node">
<title>node0</title>
<polygon fill="none" stroke="#000000" points="539.0371,-10.5442 539.0371,-25.4558 507.5068,-36 462.9163,-36 431.386,-25.4558 431.386,-10.5442 462.9163,0 507.5068,0 539.0371,-10.5442"/>
<text text-anchor="middle" x="485.2115" y="-14.4" font-family="Times,serif" font-size="12.00" fill="#000000">AlgoTrading</text>
</g>
<!-- node1 -->
<g id="node2" class="node">
<title>node1</title>
<polygon fill="none" stroke="#000000" points="428.2106,-92.7097 428.2106,-107.6213 391.8924,-118.1655 340.5307,-118.1655 304.2125,-107.6213 304.2125,-92.7097 340.5307,-82.1655 391.8924,-82.1655 428.2106,-92.7097"/>
<text text-anchor="middle" x="366.2115" y="-96.5655" font-family="Times,serif" font-size="12.00" fill="#000000">BacktestingLib</text>
</g>
<!-- node1&#45;&gt;node0 -->
<g id="edge1" class="edge">
<title>node1-&gt;node0</title>
<path fill="none" stroke="#000000" d="M392.3266,-82.1339C409.7698,-70.09 432.8728,-54.1381 451.6738,-41.1567"/>
<polygon fill="#000000" stroke="#000000" points="453.7332,-43.988 459.9736,-35.426 449.7559,-38.2277 453.7332,-43.988"/>
</g>
<!-- node2 -->
<g id="node3" class="node">
<title>node2</title>
<polygon fill="none" stroke="#000000" points="275.4256,-174.5458 280.2018,-174.6444 284.9287,-174.7918 289.5869,-174.9878 294.1575,-175.2318 298.6223,-175.5231 302.9635,-175.861 307.1643,-176.2444 311.2088,-176.6724 315.0819,-177.1437 318.7696,-177.6571 322.2591,-178.2112 325.5389,-178.8045 328.5985,-179.4353 331.4288,-180.1019 334.0221,-180.8024 336.372,-181.535 338.4734,-182.2977 340.3226,-183.0883 341.9173,-183.9047 343.2565,-184.7446 344.3403,-185.6058 345.1704,-186.4859 345.7493,-187.3825 346.0809,-188.293 346.1702,-189.2151 346.0228,-190.1462 345.6457,-191.0838 345.0464,-192.0252 344.2331,-192.9678 343.2148,-193.9092 342.0009,-194.8468 340.6012,-195.7779 339.026,-196.7 337.2857,-197.6105 335.3909,-198.5071 333.352,-199.3872 331.1798,-200.2484 328.8846,-201.0883 326.4766,-201.9047 323.9658,-202.6953 321.3618,-203.458 318.6737,-204.1906 315.9104,-204.8911 313.08,-205.5577 310.1905,-206.1885 307.2489,-206.7818 304.262,-207.3359 301.2358,-207.8493 298.176,-208.3206 295.0877,-208.7486 291.9752,-209.132 288.8428,-209.4699 285.694,-209.7612 282.532,-210.0052 279.3598,-210.2012 276.1798,-210.3486 272.9946,-210.4472 269.8062,-210.4965 266.6168,-210.4965 263.4285,-210.4472 260.2432,-210.3486 257.0633,-210.2012 253.8911,-210.0052 250.7291,-209.7612 247.5803,-209.4699 244.4478,-209.132 241.3354,-208.7486 238.247,-208.3206 235.1872,-207.8493 232.1611,-207.3359 229.1742,-206.7818 226.2326,-206.1885 223.343,-205.5577 220.5127,-204.8911 217.7494,-204.1906 215.0613,-203.458 212.4573,-202.6953 209.9465,-201.9047 207.5385,-201.0883 205.2433,-200.2484 203.071,-199.3872 201.0322,-198.5071 199.1373,-197.6105 197.397,-196.7 195.8219,-195.7779 194.4222,-194.8468 193.2083,-193.9092 192.19,-192.9678 191.3767,-192.0252 190.7774,-191.0838 190.4002,-190.1462 190.2529,-189.2151 190.3421,-188.293 190.6738,-187.3825 191.2527,-186.4859 192.0828,-185.6058 193.1666,-184.7446 194.5057,-183.9047 196.1004,-183.0883 197.9497,-182.2977 200.0511,-181.535 202.4009,-180.8024 204.9942,-180.1019 207.8246,-179.4353 210.8842,-178.8045 214.1639,-178.2112 217.6535,-177.6571 221.3412,-177.1437 225.2143,-176.6724 229.2587,-176.2444 233.4596,-175.861 237.8008,-175.5231 242.2655,-175.2318 246.8362,-174.9878 251.4944,-174.7918 256.2212,-174.6444 260.9975,-174.5458 265.8035,-174.4965 270.6195,-174.4965 275.4256,-174.5458"/>
<text text-anchor="middle" x="268.2115" y="-188.8965" font-family="Times,serif" font-size="12.00" fill="#000000">BacktestingLibTests</text>
</g>
<!-- node2&#45;&gt;node1 -->
<g id="edge2" class="edge">
<title>node2-&gt;node1</title>
<path fill="none" stroke="#000000" stroke-dasharray="1,5" d="M287.1069,-174.6942C302.0593,-160.6068 323.1178,-140.7664 339.7482,-125.098"/>
<polygon fill="#000000" stroke="#000000" points="342.1614,-127.6331 347.0398,-118.2282 337.3612,-122.5382 342.1614,-127.6331"/>
</g>
<!-- node2&#45;&gt;node2 -->
<g id="edge3" class="edge">
<title>node2-&gt;node2</title>
<path fill="none" stroke="#000000" d="M304.649,-207.3207C333.9474,-213.2504 364.1908,-208.309 364.1908,-192.4965 364.1908,-179.6039 344.0856,-173.9382 320.7799,-175.4995"/>
<polygon fill="#000000" stroke="#000000" points="320.2039,-172.0415 310.6451,-176.611 320.9671,-178.9998 320.2039,-172.0415"/>
</g>
<!-- node3 -->
<g id="node4" class="node">
<title>node3</title>
<polygon fill="none" stroke="#000000" points="286.2191,-88.43 286.2191,-111.901 249.3101,-128.4975 197.113,-128.4975 160.204,-111.901 160.204,-88.43 197.113,-71.8335 249.3101,-71.8335 286.2191,-88.43"/>
<text text-anchor="middle" x="223.2115" y="-103.7655" font-family="Times,serif" font-size="12.00" fill="#000000">gtest</text>
<text text-anchor="middle" x="223.2115" y="-89.3655" font-family="Times,serif" font-size="12.00" fill="#000000">(GTest::gtest)</text>
</g>
<!-- node2&#45;&gt;node3 -->
<g id="edge4" class="edge">
<title>node2-&gt;node3</title>
<path fill="none" stroke="#000000" stroke-dasharray="1,5" d="M259.321,-174.2549C254.2094,-163.7669 247.5967,-150.199 241.4297,-137.5454"/>
<polygon fill="#000000" stroke="#000000" points="244.5731,-136.0062 237.0457,-128.5504 238.2806,-139.073 244.5731,-136.0062"/>
</g>
<!-- node4 -->
<g id="node5" class="node">
<title>node4</title>
<polygon fill="none" stroke="#000000" points="690.1287,-92.7097 690.1287,-107.6213 639.7996,-118.1655 568.6235,-118.1655 518.2943,-107.6213 518.2943,-92.7097 568.6235,-82.1655 639.7996,-82.1655 690.1287,-92.7097"/>
<text text-anchor="middle" x="604.2115" y="-96.5655" font-family="Times,serif" font-size="12.00" fill="#000000">MovingAverageRobot</text>
</g>
<!-- node4&#45;&gt;node0 -->
<g id="edge5" class="edge">
<title>node4-&gt;node0</title>
<path fill="none" stroke="#000000" d="M578.0965,-82.1339C560.6533,-70.09 537.5503,-54.1381 518.7493,-41.1567"/>
<polygon fill="#000000" stroke="#000000" points="520.6672,-38.2277 510.4495,-35.426 516.6899,-43.988 520.6672,-38.2277"/>
</g>
<!-- node5 -->
<g id="node6" class="node">
<title>node5</title>
<polygon fill="none" stroke="#000000" points="500.5979,-92.7097 500.5979,-107.6213 484.5554,-118.1655 461.8677,-118.1655 445.8251,-107.6213 445.8251,-92.7097 461.8677,-82.1655 484.5554,-82.1655 500.5979,-92.7097"/>
<text text-anchor="middle" x="473.2115" y="-96.5655" font-family="Times,serif" font-size="12.00" fill="#000000">Utils</text>
</g>
<!-- node8 -->
<g id="node7" class="node">
<title>node8</title>
<polygon fill="none" stroke="#000000" points="172.6351,-180.761 172.6351,-204.232 122.0094,-220.8285 50.4137,-220.8285 -.2121,-204.232 -.2121,-180.761 50.4137,-164.1645 122.0094,-164.1645 172.6351,-180.761"/>
<text text-anchor="middle" x="86.2115" y="-196.0965" font-family="Times,serif" font-size="12.00" fill="#000000">gtest_main</text>
<text text-anchor="middle" x="86.2115" y="-181.6965" font-family="Times,serif" font-size="12.00" fill="#000000">(GTest::gtest_main)</text>
</g>
<!-- node8&#45;&gt;node3 -->
<g id="edge6" class="edge">
<title>node8-&gt;node3</title>
<path fill="none" stroke="#000000" d="M126.5751,-165.2935C142.975,-154.2408 161.9793,-141.4329 178.7731,-130.1147"/>
<polygon fill="#000000" stroke="#000000" points="180.9918,-132.8402 187.3283,-124.349 177.0797,-127.0354 180.9918,-132.8402"/>
</g>
<!-- node9 -->
<g id="node8" class="node">
<title>node9</title>
<polygon fill="none" stroke="#000000" points="565.5834,-174.5458 569.14,-174.6444 572.6598,-174.7918 576.1284,-174.9878 579.5319,-175.2318 582.8565,-175.5231 586.0891,-175.861 589.2172,-176.2444 592.2289,-176.6724 595.1129,-177.1437 597.8589,-177.6571 600.4574,-178.2112 602.8996,-178.8045 605.1779,-179.4353 607.2855,-180.1019 609.2165,-180.8024 610.9663,-181.535 612.5311,-182.2977 613.9081,-183.0883 615.0956,-183.9047 616.0928,-184.7446 616.8998,-185.6058 617.5179,-186.4859 617.949,-187.3825 618.196,-188.293 618.2624,-189.2151 618.1527,-190.1462 617.8719,-191.0838 617.4256,-192.0252 616.82,-192.9678 616.0617,-193.9092 615.1578,-194.8468 614.1156,-195.7779 612.9426,-196.7 611.6467,-197.6105 610.2358,-198.5071 608.7176,-199.3872 607.1,-200.2484 605.3909,-201.0883 603.5979,-201.9047 601.7282,-202.6953 599.7892,-203.458 597.7875,-204.1906 595.7298,-204.8911 593.6223,-205.5577 591.4706,-206.1885 589.2802,-206.7818 587.056,-207.3359 584.8026,-207.8493 582.5242,-208.3206 580.2245,-208.7486 577.9069,-209.132 575.5743,-209.4699 573.2296,-209.7612 570.8751,-210.0052 568.5129,-210.2012 566.145,-210.3486 563.7732,-210.4472 561.399,-210.4965 559.0241,-210.4965 556.6499,-210.4472 554.278,-210.3486 551.9102,-210.2012 549.548,-210.0052 547.1935,-209.7612 544.8487,-209.4699 542.5162,-209.132 540.1986,-208.7486 537.8989,-208.3206 535.6204,-207.8493 533.367,-207.3359 531.1429,-206.7818 528.9525,-206.1885 526.8008,-205.5577 524.6932,-204.8911 522.6355,-204.1906 520.6339,-203.458 518.6949,-202.6953 516.8252,-201.9047 515.0321,-201.0883 513.323,-200.2484 511.7055,-199.3872 510.1873,-198.5071 508.7763,-197.6105 507.4804,-196.7 506.3075,-195.7779 505.2653,-194.8468 504.3614,-193.9092 503.6031,-192.9678 502.9975,-192.0252 502.5512,-191.0838 502.2704,-190.1462 502.1607,-189.2151 502.2271,-188.293 502.4741,-187.3825 502.9051,-186.4859 503.5232,-185.6058 504.3303,-184.7446 505.3275,-183.9047 506.5149,-183.0883 507.8919,-182.2977 509.4567,-181.535 511.2065,-180.8024 513.1376,-180.1019 515.2452,-179.4353 517.5235,-178.8045 519.9657,-178.2112 522.5641,-177.6571 525.3102,-177.1437 528.1942,-176.6724 531.2058,-176.2444 534.3339,-175.861 537.5666,-175.5231 540.8912,-175.2318 544.2946,-174.9878 547.7633,-174.7918 551.2831,-174.6444 554.8397,-174.5458 558.4185,-174.4965 562.0046,-174.4965 565.5834,-174.5458"/>
<text text-anchor="middle" x="560.2115" y="-188.8965" font-family="Times,serif" font-size="12.00" fill="#000000">testOfStrategy</text>
</g>
<!-- node9&#45;&gt;node1 -->
<g id="edge7" class="edge">
<title>node9-&gt;node1</title>
<path fill="none" stroke="#000000" stroke-dasharray="1,5" d="M526.8617,-176.6242C494.1433,-161.0525 444.1269,-137.248 408.6036,-120.3413"/>
<polygon fill="#000000" stroke="#000000" points="409.9838,-117.122 399.4502,-115.9849 406.9756,-123.4427 409.9838,-117.122"/>
</g>
<!-- node9&#45;&gt;node4 -->
<g id="edge8" class="edge">
<title>node9-&gt;node4</title>
<path fill="none" stroke="#000000" stroke-dasharray="1,5" d="M568.9045,-174.2549C575.2322,-160.9766 583.9126,-142.7615 591.0828,-127.7153"/>
<polygon fill="#000000" stroke="#000000" points="594.3942,-128.9023 595.5366,-118.3692 588.075,-125.8909 594.3942,-128.9023"/>
</g>
<!-- node9&#45;&gt;node5 -->
<g id="edge9" class="edge">
<title>node9-&gt;node5</title>
<path fill="none" stroke="#000000" stroke-dasharray="1,5" d="M543.4371,-174.6942C529.6886,-160.1032 510.1248,-139.3407 495.1368,-123.4342"/>
<polygon fill="#000000" stroke="#000000" points="497.5973,-120.9419 488.1921,-116.064 492.5027,-125.7424 497.5973,-120.9419"/>
</g>
<!-- node10 -->
<g id="node9" class="node">
<title>node10</title>
<polygon fill="none" stroke="#000000" points="428.1294,-174.5458 430.7233,-174.6444 433.2905,-174.7918 435.8203,-174.9878 438.3025,-175.2318 440.7273,-175.5231 443.085,-175.861 445.3664,-176.2444 447.5629,-176.6724 449.6663,-177.1437 451.6691,-177.6571 453.5642,-178.2112 455.3454,-178.8045 457.0071,-179.4353 458.5442,-180.1019 459.9526,-180.8024 461.2288,-181.535 462.37,-182.2977 463.3743,-183.0883 464.2404,-183.9047 464.9677,-184.7446 465.5563,-185.6058 466.0071,-186.4859 466.3215,-187.3825 466.5016,-188.293 466.5501,-189.2151 466.4701,-190.1462 466.2653,-191.0838 465.9398,-192.0252 465.4981,-192.9678 464.945,-193.9092 464.2858,-194.8468 463.5256,-195.7779 462.6702,-196.7 461.725,-197.6105 460.6959,-198.5071 459.5887,-199.3872 458.409,-200.2484 457.1625,-201.0883 455.8547,-201.9047 454.4911,-202.6953 453.0769,-203.458 451.617,-204.1906 450.1163,-204.8911 448.5792,-205.5577 447.0099,-206.1885 445.4123,-206.7818 443.7902,-207.3359 442.1467,-207.8493 440.485,-208.3206 438.8077,-208.7486 437.1174,-209.132 435.4162,-209.4699 433.7061,-209.7612 431.9888,-210.0052 430.266,-210.2012 428.539,-210.3486 426.8092,-210.4472 425.0776,-210.4965 423.3455,-210.4965 421.6139,-210.4472 419.884,-210.3486 418.157,-210.2012 416.4342,-210.0052 414.717,-209.7612 413.0069,-209.4699 411.3057,-209.132 409.6154,-208.7486 407.9381,-208.3206 406.2764,-207.8493 404.6329,-207.3359 403.0107,-206.7818 401.4132,-206.1885 399.8439,-205.5577 398.3068,-204.8911 396.8061,-204.1906 395.3462,-203.458 393.932,-202.6953 392.5684,-201.9047 391.2606,-201.0883 390.0141,-200.2484 388.8344,-199.3872 387.7271,-198.5071 386.698,-197.6105 385.7529,-196.7 384.8974,-195.7779 384.1373,-194.8468 383.478,-193.9092 382.925,-192.9678 382.4833,-192.0252 382.1578,-191.0838 381.953,-190.1462 381.873,-189.2151 381.9215,-188.293 382.1016,-187.3825 382.416,-186.4859 382.8668,-185.6058 383.4554,-184.7446 384.1827,-183.9047 385.0487,-183.0883 386.053,-182.2977 387.1943,-181.535 388.4705,-180.8024 389.8789,-180.1019 391.416,-179.4353 393.0776,-178.8045 394.8588,-178.2112 396.754,-177.6571 398.7567,-177.1437 400.8602,-176.6724 403.0567,-176.2444 405.3381,-175.861 407.6958,-175.5231 410.1205,-175.2318 412.6028,-174.9878 415.1326,-174.7918 417.6997,-174.6444 420.2937,-174.5458 422.9038,-174.4965 425.5193,-174.4965 428.1294,-174.5458"/>
<text text-anchor="middle" x="424.2115" y="-188.8965" font-family="Times,serif" font-size="12.00" fill="#000000">utilsTests</text>
</g>
<!-- node10&#45;&gt;node3 -->
<g id="edge11" class="edge">
<title>node10-&gt;node3</title>
<path fill="none" stroke="#000000" stroke-dasharray="1,5" d="M397.7442,-177.221C389.9287,-172.8903 381.3001,-168.2822 373.2115,-164.331 342.915,-149.5314 308.3596,-134.6209 280.0573,-122.9029"/>
<polygon fill="#000000" stroke="#000000" points="281.2935,-119.6268 270.7141,-119.0561 278.6285,-126.0997 281.2935,-119.6268"/>
</g>
<!-- node10&#45;&gt;node5 -->
<g id="edge10" class="edge">
<title>node10-&gt;node5</title>
<path fill="none" stroke="#000000" stroke-dasharray="1,5" d="M433.6592,-174.6942C440.7986,-161.2413 450.7223,-142.5422 458.8432,-127.2399"/>
<polygon fill="#000000" stroke="#000000" points="462.0295,-128.7021 463.6257,-118.2282 455.8462,-125.4207 462.0295,-128.7021"/>
</g>
<!-- node10&#45;&gt;node10 -->
<g id="edge12" class="edge">
<title>node10-&gt;node10</title>
<path fill="none" stroke="#000000" d="M445.4905,-206.789C464.3284,-213.5224 484.3805,-208.7582 484.3805,-192.4965 484.3805,-180.2785 473.0609,-174.5509 459.4416,-175.3138"/>
<polygon fill="#000000" stroke="#000000" points="458.5339,-171.9168 449.2471,-177.0164 459.6871,-178.8212 458.5339,-171.9168"/>
</g>
</g>
</svg>